# xmcd
#
# Track frame offsets:
#	150
#	14115
#	24845
#	44121
#	61678
#	76981
#	92807
#	110759
#	127449
#	147802
#	172713
#	190368
#	208638
#	225216
#	240419
#	257004
#	276912
#	293759
#
# Disc length: 4196 seconds
#
# Revision: 1
# Processed by: cddbd v1.5.1PL0 Copyright (c) Steve Scherf et al.
# Submitted via: audiograbber 1.82.01
#
DISCID=fd106212
DTITLE=LeeAnn Rimes - God Bless America
DYEAR=1900
DGENRE=Country/Pop
TTITLE0=God Bless America
TTITLE1=I believe
TTITLE2=Wound up
TTITLE3=The safest place
TTITLE4=Trouble with Goodbye
TTITLE5=Damn
TTITLE6=Suddenly
TTITLE7=Tic Toc
TTITLE8=Sign of life
TTITLE9=Review my kisses
TTITLE10=No way out
TTITLE11=Love is an army
TTITLE12=You made me find myself
TTITLE13=Twisted angel
TTITLE14=Together forever always
TTITLE15=I believe in you
TTITLE16=Love must be telling me something
TTITLE17=One of these days
EXTD=
EXTT0=
EXTT1=
EXTT2=
EXTT3=
EXTT4=
EXTT5=
EXTT6=
EXTT7=
EXTT8=
EXTT9=
EXTT10=
EXTT11=
EXTT12=
EXTT13=
EXTT14=
EXTT15=
EXTT16=
EXTT17=
PLAYORDER=
